<?xml version="1.0" encoding="UTF-8" standalone="no"?><!DOCTYPE svg PUBLIC "-//W3C//DTD SVG 1.1//EN" "http://www.w3.org/Graphics/SVG/1.1/DTD/svg11.dtd"><svg width="100%" height="100%" viewBox="0 0 500 500" version="1.1" xmlns="http://www.w3.org/2000/svg" xmlns:xlink="http://www.w3.org/1999/xlink" xml:space="preserve" xmlns:serif="http://www.serif.com/" style="fill-rule:evenodd;clip-rule:evenodd;stroke-linejoin:round;stroke-miterlimit:2;"><rect id="Page-1" serif:id="Page 1" x="0" y="0" width="500" height="500" style="fill:none;"/><g id="Layer-1" serif:id="Layer 1"><g><path d="M74.074,390.889c2.933,0 4.436,-1.297 4.436,-4.561c0,-3.258 -1.503,-4.754 -4.47,-4.754c-1.397,0 -2.21,0.159 -3.582,0.159l-0.355,0l0,9.155l3.971,0Zm-6.68,11.047l0,-20.686l3.064,0c1.337,0 2.12,-0.165 3.582,-0.165c5.053,0 7.594,2.675 7.594,5.215c0,2.145 -1.82,4.33 -5.508,4.919c3.198,0.814 5.318,2.999 5.318,5.209c0,0.982 -0.034,1.83 -0.034,2.544c0,1.727 0.193,2.675 1.496,2.675l0,0.455c-3.192,0 -4.495,-1.403 -4.495,-5.673c0,-2.506 -0.555,-5.081 -4.953,-5.081l-3.354,0l0,10.589l-2.709,0Z" style="fill:#23485f;fill-rule:nonzero;"/><path d="M125.318,391.346l-7.918,0l0,10.103l11.306,0l0,0.489l-14.012,0l0,-20.689l13.523,0l0,0.486l-10.817,0l0,9.152l7.918,0l0,0.458Z" style="fill:#23485f;fill-rule:nonzero;"/><path d="M165.805,401.938l0,-20.231l-7.335,0l0,-0.489l17.369,0l0,0.489l-7.335,0l0,20.231l-2.7,0Z" style="fill:#23485f;fill-rule:nonzero;"/><path d="M214.832,394.702l-4.236,-10.458l-4.561,10.458l8.797,0Zm2.899,7.204l-2.74,-6.746l-9.155,0l-2.933,6.746l-0.514,0l9.445,-21.733l8.797,21.733l-2.899,0Z" style="fill:#23485f;fill-rule:nonzero;"/><rect x="252.385" y="381.25" width="2.709" height="20.686" style="fill:#23485f;"/><path d="M300.069,401.448l0,0.489l-12.254,0l0,-20.686l2.709,0l0,20.197l9.545,0Z" style="fill:#23485f;fill-rule:nonzero;"/><rect x="331.042" y="381.25" width="2.706" height="20.686" style="fill:#23485f;"/><path d="M366.473,380.886c4.825,5.443 9.579,10.951 14.37,16.425l0,-16.06l0.493,0l0,21.144l-14.374,-16.883l0,16.425l-0.489,0l0,-21.051Z" style="fill:#23485f;fill-rule:nonzero;"/><path d="M432.606,394.411l-1.496,0c-0.165,4.726 -3.847,7.693 -7.824,7.693c-4.719,0 -10.162,-4.077 -10.162,-10.592c0,-6.421 5.443,-10.427 10.162,-10.427c3.064,0 5.963,1.761 7.011,4.236l-0.458,0.193c-0.979,-2.279 -3.619,-3.94 -6.552,-3.94c-5.112,0 -6.68,4.564 -6.68,9.938c0,5.374 1.537,10.134 6.68,10.134c4.202,0 4.791,-3.229 4.825,-7.235l-2.316,0l0,-0.489l6.811,0l0,0.489Z" style="fill:#23485f;fill-rule:nonzero;"/><path d="M59.057,346.313c0,2.297 0.87,4.302 2.612,6.007c1.743,1.708 4.57,2.559 8.485,2.559c5.461,0 10.309,-1.696 14.548,-5.09c4.236,-3.395 6.356,-8.036 6.356,-13.928c0,-5.458 -1.393,-9.984 -4.174,-13.579c-2.784,-3.591 -6.527,-5.387 -11.234,-5.387l-16.593,0l0,29.417Zm0,-31.68l11.097,0c4.779,0 8.551,-1.596 11.312,-4.794c2.768,-3.198 4.149,-7.201 4.149,-12.014c0,-4.779 -1.381,-8.766 -4.149,-11.961c-2.762,-3.198 -6.534,-4.794 -11.312,-4.794l-11.097,0l0,33.563Zm19.935,-35.988c5.745,0 10.683,1.777 14.816,5.334c4.021,3.557 6.035,7.883 6.035,12.983c0,4.885 -1.908,9.105 -5.711,12.662c-3.809,3.485 -8.516,5.405 -14.118,5.764l4.149,0c5.711,0.037 10.686,2.101 14.925,6.197c4.165,4.059 6.25,8.962 6.25,14.707c0,5.748 -2.085,10.614 -6.25,14.601c-4.239,4.096 -9.215,6.144 -14.925,6.144l-48.651,0l0,-2.157c6.574,0.072 9.857,-3.176 9.857,-9.751l0,-54.47c0,-6.428 -3.282,-9.716 -9.857,-9.86l0,-2.154l43.479,0Z" style="fill:#23485f;fill-rule:nonzero;"/><path d="M151.97,278.697l0,2.101c-6.54,0 -9.788,3.289 -9.754,9.86l0,42.185c0.075,6.718 2.067,11.789 5.982,15.221c3.915,3.429 9.411,5.143 16.484,5.143c7.114,0 12.572,-1.668 16.381,-5.009c3.878,-3.304 5.82,-8.423 5.82,-15.355l0,-42.185c0,-6.571 -3.251,-9.86 -9.754,-9.86l0,-2.101l21.93,0l0,2.101c-6.397,0 -9.592,3.289 -9.592,9.86l0,42.185c0,8.083 -2.799,14.349 -8.404,18.803c-5.533,4.417 -12.968,6.627 -22.307,6.627c-9.623,0 -17.185,-2.21 -22.681,-6.627c-5.171,-4.236 -7.759,-10.505 -7.759,-18.803l0,-42.185c0.034,-6.571 -3.214,-9.86 -9.751,-9.86l0,-2.101l33.404,0Z" style="fill:#23485f;fill-rule:nonzero;"/><path d="M277.802,278.643l1.185,18.697l-2.101,0.321c-0.751,-11.097 -6.986,-16.649 -18.697,-16.649l-19.663,0l0,32.653l9.966,0c7.653,0 11.478,-3.915 11.478,-11.746l2.101,0l0,26.129l-2.101,0c0,-7.974 -3.825,-11.961 -11.478,-11.961l-9.966,0l0,25.702c0,8.763 5.892,13.145 17.672,13.145c16.487,0 25.109,-6.808 25.864,-20.421l1.936,0.162l-1.344,22.36l-67.672,0l0,-2.154c6.54,-0.143 9.807,-3.395 9.807,-9.754l0,-54.47c0.034,-6.68 -3.233,-9.966 -9.807,-9.86l0,-2.154l62.821,0Z" style="fill:#23485f;fill-rule:nonzero;"/><path d="M327.341,278.643c0,1.222 0.898,2.946 2.696,5.171c7.182,10.667 19.09,27.048 35.717,49.137l0,-42.295c0,-6.571 -3.282,-9.86 -9.857,-9.86l0,-2.154l22.036,0l0,2.263c-6.465,-0.072 -9.698,3.18 -9.698,9.751l0,66.378l-4.149,0l-51.939,-69.826l0,57.812c-0.034,6.68 3.214,10.022 9.754,10.022l0,1.992l-21.983,0l0,-2.101c6.393,0 9.607,-3.304 9.645,-9.913l0,-54.364c-0.037,-6.571 -3.251,-9.86 -9.645,-9.86l0,-2.154l27.422,0Z" style="fill:#23485f;fill-rule:nonzero;"/><path d="M405.007,328.749l25.917,0c-0.969,-2.297 -5.405,-13.289 -13.311,-32.974c-7.827,20.511 -12.033,31.503 -12.606,32.974m20.097,-50.106l28.068,67.563c2.372,5.496 6.144,8.317 11.316,8.457l0,2.372l-32.22,0l0,-2.372c6.11,0.075 8.011,-2.746 5.711,-8.457l-6.141,-15.193l-27.746,0l-5.817,15.193c-2.266,5.639 -0.343,8.457 5.764,8.457l0,2.372l-19.882,0l0,-2.372c5.496,0.109 9.358,-2.709 11.584,-8.457l25.698,-67.563l3.666,0Z" style="fill:#23485f;fill-rule:nonzero;"/></g><path d="M224.764,96.658c-2.503,-0.059 -4.483,-2.138 -4.42,-4.638c0.059,-2.503 2.135,-4.483 4.638,-4.42c2.503,0.059 4.483,2.135 4.42,4.638c-0.059,2.5 -2.135,4.479 -4.638,4.42m58.417,-9.85c2.5,0.059 4.479,2.135 4.42,4.638c-0.062,2.5 -2.138,4.479 -4.642,4.42c-2.5,-0.059 -4.479,-2.138 -4.42,-4.638c0.062,-2.503 2.138,-4.483 4.642,-4.42m45.811,51.303c-24.872,-12.952 -48.906,-34.492 -59.564,-50.914c-0.252,-0.387 0.396,-1.11 0.795,-0.592c5.776,7.534 16.191,17.578 18.959,20.075c3.167,2.858 6.562,5.536 6.4,4.654c-1.799,-8.354 -0.153,-20.455 0.973,-24.741c1.128,-4.286 0.748,-5.739 -0.711,-5.842c-1.571,-0.112 -2.282,1.771 -10.652,2.011c-8.345,0.237 -12.326,-1.175 -16.799,-3.694c-5,-2.821 -8.928,-8.622 -11.384,-8.681c-2.453,-0.059 -6.655,5.549 -11.786,8.123c-4.589,2.301 -8.681,6.004 -17.008,5.365c-8.345,-0.642 -13.862,-3.258 -15.437,-3.223c-1.462,0.034 -1.496,1.637 -0.577,5.973c0.92,4.336 1.914,15.701 -0.284,23.959c-0.203,0.873 7.123,-4.654 10.446,-7.329c5.103,-4.112 5.623,-4.617 12.238,-10.355c3.551,-3.08 6.478,-6.054 7.802,-7.001c0.324,-0.234 0.72,0.184 0.471,0.496c-8.881,10.988 -27.46,28.102 -43.005,39.202c-16.312,11.643 -40.218,17.6 -50.203,19.308c-9.984,1.708 -12.656,-0.695 -13.052,7.681c-0.396,8.373 2.182,22.665 11.334,31.269c9.149,8.604 13.728,4.62 27.048,-5.998c12.444,-9.922 53.984,-49.954 72.84,-88.81c0.293,-0.605 1.228,-0.122 0.973,0.499c-3.66,8.837 -10.68,24.863 -14.701,31.952c-10.945,19.28 -33.018,47.407 -45.502,61.874c-12.484,14.467 -21.397,14.252 -21.674,25.798c-0.281,11.543 7.544,20.652 13.454,24.155c5.91,3.507 16.231,5.948 26.422,-16.471c9.71,-21.362 34.62,-77.538 45.097,-122.329c0.097,-0.411 0.714,-0.271 0.652,0.147c-5.218,34.124 -19.81,76.606 -26.671,101.151c-8.002,28.61 -20.044,42.943 -16.711,50.334c3.332,7.391 17.862,17.245 30.437,17.254c12.572,0.009 11.057,-9.822 11.743,-32.323c0.63,-20.555 2.631,-90.122 4.292,-133.48c0.022,-0.577 0.873,-0.574 0.895,0c1.259,32.098 3.273,72.893 3.893,90.418c0.695,19.676 0.374,63.32 11.063,68.841c10.686,5.521 33.454,-0.998 37.784,-8.594c3.205,-5.623 1.25,-8.233 -14.61,-36.905c-11.322,-20.468 -29.77,-63.152 -35.393,-116.519c-0.047,-0.43 0.586,-0.536 0.661,-0.109c11.019,62.98 31.082,92.563 40.639,108.143c10.318,16.821 15.561,27.718 24.28,25.979c9.944,-1.986 20.627,-14.614 21.403,-22.587c0.776,-7.974 -12.316,-14.773 -27.905,-31.328c-13.061,-13.875 -31.5,-33.732 -47.488,-68.002c-2.001,-4.286 -5.025,-12.372 -6.559,-17.076c-0.196,-0.599 0.708,-0.976 0.948,-0.396c2.138,5.181 6.038,13.844 8.407,18.198c18.984,34.938 37.634,52.781 50.73,63.57c8.551,7.048 13.778,10.664 19.264,9.529c5.486,-1.135 16.172,-7.7 19.096,-19.913c2.927,-12.21 -2.949,-6.702 -33.763,-22.743" style="fill:#23485f;fill-rule:nonzero;"/></g></svg>