<?xml version="1.0" encoding="UTF-8" standalone="no"?><!DOCTYPE svg PUBLIC "-//W3C//DTD SVG 1.1//EN" "http://www.w3.org/Graphics/SVG/1.1/DTD/svg11.dtd"><svg width="100%" height="100%" viewBox="0 0 1024 1024" version="1.1" xmlns="http://www.w3.org/2000/svg" xmlns:xlink="http://www.w3.org/1999/xlink" xml:space="preserve" xmlns:serif="http://www.serif.com/" style="fill-rule:evenodd;clip-rule:evenodd;stroke-linejoin:round;stroke-miterlimit:2;"><g><path d="M411.228,231.522c-9.996,-0.237 -17.9,-8.539 -17.651,-18.522c0.237,-9.996 8.527,-17.9 18.522,-17.651c9.996,0.237 17.9,8.527 17.651,18.522c-0.237,9.983 -8.527,17.887 -18.522,17.651m233.271,-39.335c9.983,0.237 17.887,8.527 17.651,18.522c-0.249,9.983 -8.539,17.887 -18.535,17.651c-9.983,-0.237 -17.887,-8.539 -17.651,-18.522c0.249,-9.996 8.539,-17.9 18.535,-17.651m182.932,204.865c-99.321,-51.72 -195.293,-137.734 -237.852,-203.309c-1.008,-1.544 1.581,-4.431 3.174,-2.365c23.066,30.086 64.654,70.193 75.707,80.163c12.647,11.415 26.203,22.107 25.555,18.584c-7.182,-33.36 -0.61,-81.682 3.884,-98.798c4.506,-17.116 2.987,-22.916 -2.838,-23.327c-6.274,-0.448 -9.112,7.07 -42.534,8.029c-33.323,0.946 -49.218,-4.693 -67.081,-14.751c-19.966,-11.265 -35.65,-34.43 -45.459,-34.667c-9.796,-0.237 -26.576,22.157 -47.065,32.439c-18.323,9.186 -34.667,23.974 -67.915,21.423c-33.323,-2.564 -55.355,-13.008 -61.641,-12.871c-5.838,0.137 -5.975,6.535 -2.303,23.85c3.672,17.315 7.643,62.699 -1.133,95.673c-0.809,3.485 28.443,-18.584 41.712,-29.265c20.377,-16.419 22.456,-18.435 48.87,-41.351c14.178,-12.298 25.866,-24.174 31.157,-27.958c1.295,-0.934 2.875,0.734 1.88,1.979c-35.464,43.878 -109.652,112.216 -171.729,156.543c-65.139,46.492 -160.601,70.28 -200.471,77.101c-39.87,6.821 -50.538,-2.776 -52.119,30.671c-1.581,33.435 8.713,90.508 45.26,124.863c36.534,34.356 54.82,18.448 108.009,-23.949c49.691,-39.621 215.57,-199.475 290.866,-354.636c1.17,-2.415 4.904,-0.485 3.884,1.992c-14.614,35.289 -42.646,99.283 -58.704,127.589c-43.704,76.989 -131.847,189.305 -181.7,247.075c-49.853,57.77 -85.441,56.911 -86.549,103.018c-1.12,46.094 30.124,82.466 53.724,96.458c23.601,14.004 64.815,23.75 105.507,-65.774c38.775,-85.304 138.245,-309.625 180.082,-488.487c0.386,-1.643 2.851,-1.083 2.602,0.585c-20.838,136.265 -79.105,305.903 -106.503,403.917c-31.953,114.245 -80.039,171.48 -66.732,200.994c13.307,29.514 71.326,68.861 121.54,68.898c50.202,0.037 44.152,-39.223 46.891,-129.071c2.514,-82.08 10.506,-359.877 17.141,-533.013c0.087,-2.303 3.485,-2.29 3.573,0c5.029,128.174 13.07,291.078 15.547,361.059c2.776,78.57 1.494,252.851 44.177,274.896c42.671,22.045 133.589,-3.983 150.879,-34.318c12.796,-22.456 4.992,-32.874 -58.343,-147.369c-45.21,-81.732 -118.876,-252.179 -141.332,-465.284c-0.187,-1.718 2.34,-2.141 2.639,-0.436c44.003,251.494 124.116,369.623 162.281,431.837c41.202,67.168 62.139,110.685 96.955,103.74c39.708,-7.929 82.367,-58.355 85.466,-90.196c3.099,-31.841 -49.181,-58.99 -111.432,-125.1c-52.156,-55.405 -125.784,-134.697 -189.629,-271.548c-7.991,-17.116 -20.066,-49.405 -26.19,-68.189c-0.784,-2.39 2.826,-3.896 3.784,-1.581c8.539,20.688 24.111,55.28 33.572,72.67c75.807,139.514 150.282,210.765 202.575,253.847c34.144,28.144 55.019,42.584 76.927,38.053c21.908,-4.531 64.579,-30.746 76.255,-79.516c11.688,-48.758 -11.776,-26.763 -134.822,-90.819" style="fill:#25495e;fill-rule:nonzero;"/></g></svg>